<?xml version="1.0" encoding="UTF-8"?>
<svg version="1.1" xmlns="http://www.w3.org/2000/svg" width="1800" height="1200">
<path d="M0 0 C592.68 0 1185.36 0 1796 0 C1796 396 1796 792 1796 1200 C1203.32 1200 610.64 1200 0 1200 C0 804 0 408 0 0 Z M170 349 C169.90130553 350.98504109 169.8744431 352.97365806 169.87415886 354.96115112 C169.87155111 356.26531542 169.86894336 357.56947971 169.86625659 358.91316414 C169.86841913 360.3794468 169.8706758 361.84572933 169.87301636 363.31201172 C169.87186553 364.85483779 169.87027827 366.39766359 169.86828911 367.94048882 C169.86409049 372.20049483 169.86618887 376.46047861 169.86927533 380.72048473 C169.87152706 385.3067611 169.86805096 389.89303349 169.86529541 394.47930908 C169.86083627 403.47189454 169.86181482 412.46447168 169.86470805 421.45705748 C169.86696152 428.76204211 169.86727485 436.0670244 169.86618423 443.37200928 C169.866031 444.40957017 169.86587777 445.44713106 169.86571989 446.51613319 C169.86540018 448.62356393 169.86507597 450.73099466 169.8647473 452.8384254 C169.86189209 472.62475265 169.86518018 492.41107527 169.87054767 512.19740176 C169.87501574 529.19475453 169.87423982 546.19210048 169.86962891 563.18945312 C169.86428387 582.90238876 169.86216678 602.61532034 169.86524117 622.32825661 C169.86555974 624.42816798 169.86587411 626.52807935 169.86618423 628.62799072 C169.86633851 629.66133226 169.86649279 630.6946738 169.86665174 631.75932872 C169.86751711 639.06007349 169.86605359 646.36081569 169.86370468 653.66156006 C169.86090727 662.55221457 169.8616437 671.44286025 169.86698543 680.33351374 C169.86962324 684.87429701 169.87062616 689.41506552 169.86733627 693.95584869 C169.86437494 698.10575324 169.86596338 702.25562924 169.87131383 706.40553117 C169.87243871 707.91358418 169.87184527 709.42163957 169.86943804 710.92969108 C169.8664347 712.9660754 169.870087 715.00246641 169.87415886 717.03884888 C169.87432121 718.17405031 169.87448356 719.30925175 169.87465084 720.47885323 C169.71421744 722.93792446 169.71421744 722.93792446 171 724 C172.54202856 724.09781368 174.08854695 724.1255551 175.63367462 724.12584114 C176.64175029 724.12844889 177.64982596 724.13105664 178.68844938 724.13374341 C179.80933848 724.13151268 180.93022758 724.12928196 182.08508301 724.12698364 C183.85552624 724.12932363 183.85552624 724.12932363 185.66173601 724.13171089 C188.95262085 724.13502415 192.24344913 724.13381172 195.53433061 724.13072467 C199.07765291 724.12847242 202.62097008 724.1319493 206.16429138 724.13470459 C213.11148285 724.13916317 220.05866354 724.13818543 227.00585544 724.13529195 C232.64941743 724.13303826 238.29297639 724.13272524 243.9365387 724.13381577 C244.73819388 724.133969 245.53984907 724.13412223 246.36579683 724.13428011 C247.99408257 724.13459982 249.62236831 724.13492403 251.25065404 724.1352527 C266.53749633 724.13810775 281.82433262 724.13482008 297.11117393 724.12945233 C310.24257598 724.12498427 323.3739692 724.1257602 336.50537109 724.13037109 C351.73560148 724.13571642 366.96582661 724.13783305 382.1960578 724.13475883 C383.81852563 724.13444026 385.44099347 724.13412589 387.0634613 724.13381577 C388.26104955 724.13358435 388.26104955 724.13358435 389.48283151 724.13334826 C395.12296012 724.13248298 400.76308541 724.13394622 406.4032135 724.13629532 C413.27184041 724.13909306 420.14045589 724.13835562 427.00908148 724.13301457 C430.5169803 724.1303772 434.02486002 724.1293731 437.53275871 724.13266373 C441.3268224 724.1361691 445.12085445 724.13199824 448.91491699 724.12698364 C450.59625064 724.13032973 450.59625064 724.13032973 452.31155062 724.13374341 C453.82366412 724.12983178 453.82366412 724.12983178 455.36632538 724.12584114 C456.24331699 724.12567879 457.1203086 724.12551644 458.02387571 724.12534916 C460.00187297 724.2184355 460.00187297 724.2184355 461 723 C461.10065628 719.93081812 461.13614443 716.88409724 461.12939453 713.81445312 C461.13114685 712.85030991 461.13289917 711.88616669 461.13470459 710.89280701 C461.13912493 707.68893664 461.13618447 704.48512098 461.1328125 701.28125 C461.13348549 699.06547027 461.13445547 696.84969061 461.13571167 694.63391113 C461.13718889 689.98330993 461.13503331 685.33272789 461.13037109 680.68212891 C461.1246738 674.70617396 461.12795267 668.73026391 461.13394356 662.75431061 C461.13754852 658.17685606 461.13641088 653.59941225 461.13381577 649.0219574 C461.13314632 646.81782526 461.13397554 644.61369217 461.13629532 642.40956116 C461.13882078 639.33486328 461.13498275 636.26023922 461.12939453 633.18554688 C461.13243088 631.80471169 461.13243088 631.80471169 461.13552856 630.39598083 C461.52844735 626.37864687 461.52844735 626.37864687 460 623 C458.16977942 622.89569601 456.3355124 622.86201113 454.50233459 622.85523987 C453.30904037 622.84834137 452.11574615 622.84144287 450.8862915 622.83433533 C449.55188003 622.83162039 448.2174684 622.82898326 446.88305664 622.82641602 C445.48715507 622.82011438 444.09125552 622.81334902 442.69535828 622.80615234 C439.68276959 622.79145624 436.6701888 622.77974224 433.65757942 622.77020454 C428.89761299 622.75479185 424.13771384 622.73084367 419.37779236 622.70530701 C405.84020226 622.63399619 392.3025736 622.57427325 378.76489258 622.52319336 C371.29327816 622.49492611 363.82173063 622.45956488 356.35018629 622.41653961 C351.61483281 622.38970397 346.87955505 622.37183781 342.14414036 622.36050236 C339.20168719 622.35139989 336.25932628 622.33404944 333.31692696 622.31432343 C331.29438928 622.30324179 329.27180489 622.3020966 327.24923706 622.30119324 C326.05312302 622.29147491 324.85700897 622.28175659 323.62464905 622.27174377 C322.58063462 622.26751184 321.5366202 622.2632799 320.46096897 622.25891972 C318 622 318 622 316 620 C315.78815352 617.4542644 315.69601192 615.01999362 315.69921875 612.47265625 C315.69279106 611.35557533 315.69279106 611.35557533 315.68623352 610.21592712 C315.68048718 608.63981137 315.6799922 607.0636691 315.68432617 605.48754883 C315.68748335 603.07522308 315.66404244 600.66412688 315.63867188 598.25195312 C315.63639863 596.72135572 315.63569551 595.190755 315.63671875 593.66015625 C315.627509 592.93820572 315.61829926 592.21625519 315.60881042 591.47242737 C315.65492608 586.48220676 315.65492608 586.48220676 317.20929527 584.31012917 C319.59053588 582.5679476 321.08519383 582.61877329 324.02359009 582.60800171 C325.06120987 582.59690872 326.09882965 582.58581573 327.16789246 582.5743866 C328.30567642 582.57739273 329.44346039 582.58039886 330.61572266 582.58349609 C331.81424362 582.57491074 333.01276459 582.56632538 334.24760437 582.55747986 C337.53465258 582.53666853 340.82142521 582.52900665 344.10852861 582.52682066 C347.54477825 582.52116501 350.98090438 582.49789641 354.41708374 582.47622681 C360.92523068 582.43768803 367.43334233 582.41347793 373.94157445 582.39510214 C385.60674986 582.36169855 397.27181981 582.3040667 408.93686903 582.24111044 C413.03356985 582.2195697 417.13023389 582.2043283 421.22697854 582.19427085 C424.36568851 582.18563259 427.50437343 582.17105928 430.64306641 582.15771484 C431.78489883 582.15667252 432.92673126 582.15563019 434.10316467 582.15455627 C435.13514481 582.14910294 436.16712494 582.1436496 437.2303772 582.13803101 C438.13260324 582.13547491 439.03482929 582.13291882 439.96439552 582.13028526 C441.99483182 582.22533425 441.99483182 582.22533425 443 581 C443.10058243 578.08342371 443.13615211 575.19049054 443.12939453 572.2734375 C443.13114685 571.35806213 443.13289917 570.44268677 443.13470459 569.49957275 C443.13912461 566.45802951 443.13618459 563.41654389 443.1328125 560.375 C443.1334855 558.2713215 443.13445548 556.16764308 443.13571167 554.06396484 C443.13718885 549.64875551 443.13503345 545.23356637 443.13037109 540.81835938 C443.1246738 535.14507439 443.1279527 529.47183671 443.13394356 523.79855347 C443.13754864 519.45271444 443.13641083 515.10688672 443.13381577 510.76104736 C443.13314635 508.6685587 443.13397543 506.57606903 443.13629532 504.48358154 C443.13882098 501.56454734 443.13498248 498.64559088 443.12939453 495.7265625 C443.13243088 494.41585785 443.13243088 494.41585785 443.13552856 493.07867432 C443.5011089 489.22923759 443.5011089 489.22923759 442 486 C440.39786188 485.8961983 438.79116705 485.86203425 437.1856842 485.85523987 C436.14384476 485.84834137 435.10200531 485.84144287 434.02859497 485.83433533 C432.87584076 485.83172195 431.72308655 485.82910858 430.53540039 485.82641602 C429.3290242 485.819729 428.12264801 485.81304199 426.87971497 485.80615234 C424.25016468 485.79206331 421.62067058 485.77974342 418.99110603 485.77020454 C414.83602311 485.75478887 410.68101719 485.73084059 406.52598572 485.70530701 C394.70886085 485.63400443 382.89169185 485.57427862 371.07446289 485.52319336 C364.55212069 485.49492203 358.02985507 485.45955854 351.5075931 485.41653961 C347.37436695 485.38971072 343.24122748 485.37184043 339.10793126 485.36050236 C335.93656751 485.34926114 332.76529761 485.32513152 329.59399414 485.30297852 C328.44326416 485.30238937 327.29253418 485.30180023 326.10693359 485.30119324 C324.53994469 485.28661575 324.53994469 485.28661575 322.94129944 485.27174377 C322.0300232 485.26751184 321.11874697 485.2632799 320.1798563 485.25891972 C318 485 318 485 316 483 C315.80051443 480.51433457 315.72010257 478.1424925 315.734375 475.65625 C315.73246155 474.93135376 315.7305481 474.20645752 315.72857666 473.45959473 C315.72721513 471.92634738 315.73090936 470.3930885 315.73925781 468.85986328 C315.74995822 466.50917741 315.73936192 464.15925577 315.7265625 461.80859375 C315.7278841 460.32031081 315.73044651 458.83202834 315.734375 457.34375 C315.73032654 456.63851196 315.72627808 455.93327393 315.72210693 455.20666504 C315.77007514 450.22992486 315.77007514 450.22992486 318 448 C320.44814491 447.75390434 320.44814491 447.75390434 323.59341431 447.75949097 C324.78255936 447.75674164 325.97170441 447.75399231 327.19688416 447.75115967 C328.50814774 447.75835022 329.81941132 447.76554077 331.17041016 447.77294922 C332.55984997 447.77351313 333.94929039 447.77319716 335.33872986 447.77206421 C339.11746842 447.77148891 342.89608075 447.78327168 346.67478991 447.79721212 C350.62127071 447.80969014 354.56775422 447.81088766 358.51425171 447.81326294 C365.9905238 447.81948635 373.4667376 447.83590876 380.94298398 447.85596192 C389.45313837 447.8782942 397.9632955 447.88930762 406.47347188 447.89935279 C423.98234834 447.92027427 441.49116801 447.95546691 459 448 C459.02505615 448.93384521 459.0501123 449.86769043 459.07592773 450.82983398 C459.17086928 454.28325189 459.27011258 457.7364896 459.37231445 461.18969727 C459.41571813 462.68639269 459.45738913 464.18313939 459.49731445 465.67993164 C459.55488616 467.82714312 459.61861716 469.97409521 459.68359375 472.12109375 C459.72025146 473.4145874 459.75690918 474.70808105 459.79467773 476.04077148 C459.6667278 478.88555008 459.6667278 478.88555008 461 480 C464.05306652 480.10407535 467.08425713 480.1436086 470.13793945 480.1418457 C471.09726379 480.14532013 472.05658813 480.14879456 473.04498291 480.15237427 C475.13593779 480.15974629 477.22690057 480.16508393 479.31786537 480.16866493 C482.62499536 480.17580655 485.9319749 480.19145568 489.23905945 480.21000671 C498.64462213 480.26258515 508.05010408 480.31046789 517.45581055 480.32592773 C523.2018518 480.33599363 528.94751771 480.36528506 534.69341087 480.40724754 C536.8866613 480.41958462 539.07996468 480.42467389 541.27324867 480.42244911 C544.34053385 480.42010356 547.4067376 480.44220698 550.47387695 480.4699707 C551.38364792 480.46336929 552.29341888 480.45676788 553.23075867 480.44996643 C554.06781342 480.46243408 554.90486816 480.47490173 555.76728821 480.48774719 C556.49236226 480.49013555 557.21743631 480.4925239 557.96448231 480.49498463 C561.11876339 481.27756708 562.14729815 482.31409975 564 485 C564.59441471 488.16758873 564.54195871 491.29470252 564.51225281 494.50968933 C564.51904849 495.48428693 564.52584418 496.45888452 564.5328458 497.46301538 C564.55084242 500.73753408 564.54032215 504.01134565 564.5300293 507.28588867 C564.53712415 509.62965979 564.54598624 511.97342612 564.55648804 514.31718445 C564.58014341 520.68876937 564.57936087 527.06014992 564.57457328 533.43176818 C564.5740412 539.41428726 564.59240983 545.39673414 564.61096082 551.37921742 C564.64717801 563.22993956 564.66633226 575.08062378 564.67407227 586.93139648 C564.68163927 598.44085433 564.69474224 609.95027738 564.71704102 621.4597168 C564.71909706 622.52364977 564.71909706 622.52364977 564.72119465 623.60907634 C564.73631152 631.34692049 564.75303982 639.08476045 564.77101612 646.82259846 C564.77258809 647.50194363 564.77416006 648.1812888 564.77577967 648.8812202 C564.78520512 652.95388063 564.78520512 652.95388063 564.79479728 657.02654067 C564.81517637 665.63672801 564.82831374 674.24689292 564.83385694 682.85710371 C564.83767585 687.783582 564.84528335 692.71004987 564.8536644 697.63652229 C564.85663659 699.93077308 564.85785787 702.22502685 564.85725212 704.51927948 C564.85659025 707.63663192 564.86189815 710.7539179 564.86869812 713.8712616 C564.86694775 714.79166597 564.86519738 715.71207034 564.86339396 716.66036576 C564.47658083 720.64791645 564.47658083 720.64791645 566 724 C567.90864049 724.0987757 569.82098315 724.12632207 571.73217773 724.12698364 C572.97740204 724.12980347 574.22262634 724.13262329 575.50558472 724.13552856 C576.89825454 724.13358397 578.29092422 724.13153578 579.68359375 724.12939453 C581.14022872 724.13074853 582.59686334 724.13252845 584.05349731 724.13470459 C588.02032936 724.13927912 591.98713552 724.13748928 595.95396805 724.1343255 C600.09618451 724.131802 604.23839869 724.13413941 608.38061523 724.13571167 C615.33805745 724.1375334 622.29548908 724.13512698 629.25292969 724.13037109 C637.30827528 724.12492847 645.36359557 724.12669112 653.41894054 724.1321975 C660.32253073 724.13672855 667.22611328 724.13737922 674.12970448 724.13475883 C678.25842008 724.13319601 682.38712377 724.13300243 686.51583862 724.13629532 C690.39649522 724.13917391 694.27711903 724.13719857 698.15777206 724.13140106 C699.58607809 724.1300734 701.01438685 724.13046769 702.4426918 724.13266373 C704.38440099 724.13537495 706.32611617 724.13138066 708.26782227 724.12698364 C709.90159569 724.1264181 709.90159569 724.1264181 711.56837463 724.12584114 C713.94843396 724.27477157 713.94843396 724.27477157 715 723 C715.10156606 719.94979172 715.13710361 716.92200759 715.13130188 713.8712616 C715.13341759 712.90134397 715.13553331 711.93142635 715.13771313 710.93211728 C715.14374369 707.65549874 715.14271082 704.37891837 715.1418457 701.10229492 C715.14487517 698.76383905 715.14839602 696.42538377 715.15237427 694.08692932 C715.16027987 689.03791932 715.16541441 683.98891645 715.16866493 678.93990135 C715.17455873 670.96172944 715.19104323 662.98359632 715.21000671 655.00544739 C715.21636394 652.27783115 715.22267231 649.5502148 715.22898388 646.82259846 C715.23056764 646.14087336 715.2321514 645.45914826 715.23378316 644.75676483 C715.25173115 636.99108524 715.26795182 629.22540261 715.28295898 621.4597168 C715.28433486 620.74956522 715.28571073 620.03941365 715.28712829 619.30774233 C715.30905726 607.80009315 715.31981382 596.29245496 715.32732973 584.78478857 C715.33539642 572.97831856 715.35867308 561.17194304 715.3952834 549.36552697 C715.41535053 542.733315 715.42743254 536.10123194 715.42244911 529.4689846 C715.41781981 523.23175732 715.43151403 516.9948447 715.45946121 510.75768089 C715.46640231 508.46470167 715.46646845 506.1716901 715.45926094 503.8787117 C715.4504327 500.75532529 715.465969 497.63299001 715.48774719 494.50968933 C715.47930466 493.59597712 715.47086212 492.68226491 715.46216375 491.74086446 C715.54082267 485.66657374 715.54082267 485.66657374 717.76509857 482.43766022 C720.2017362 480.87022778 721.40315258 480.49709756 724.27067566 480.48774719 C725.53887901 480.46904572 725.53887901 480.46904572 726.83270264 480.44996643 C727.75182434 480.45656784 728.67094604 480.46316925 729.61791992 480.4699707 C731.07942223 480.45687363 731.07942223 480.45687363 732.57044983 480.44351196 C735.7906429 480.41911536 739.01019496 480.42254776 742.23046875 480.42578125 C744.46439208 480.41334161 746.69830561 480.39900893 748.9322052 480.38285828 C754.81234756 480.34479039 760.69232133 480.32963606 766.5725708 480.32006836 C775.99602769 480.30033904 785.41935572 480.24363414 794.84267616 480.19130516 C798.14270265 480.1758992 801.44266537 480.16875694 804.74272156 480.16316223 C806.75190259 480.15614982 808.76108332 480.1490492 810.77026367 480.1418457 C811.69545807 480.14237442 812.62065247 480.14290314 813.57388306 480.14344788 C817.60743929 480.53296343 817.60743929 480.53296343 821 479 C821.10049006 477.33438823 821.13076229 475.66450268 821.13371277 473.99586487 C821.13797775 472.91195465 821.14224274 471.82804443 821.14663696 470.71128845 C821.14618378 469.51178055 821.14573059 468.31227264 821.14526367 467.07641602 C821.14862228 465.82127197 821.1519809 464.56612793 821.15544128 463.27294922 C821.16430149 459.82050007 821.16662024 456.36807569 821.16725707 452.91561627 C821.16820453 450.03774182 821.17188094 447.15987318 821.17542917 444.28200096 C821.18358143 437.4945569 821.1860127 430.70712612 821.18530273 423.91967773 C821.18470175 416.90838099 821.19525586 409.89716114 821.2110464 402.88588387 C821.22410391 396.87483817 821.22948739 390.86381765 821.22884732 384.85275787 C821.22859181 381.25886743 821.23147249 377.66504527 821.24202538 374.0711689 C821.25346685 370.06505161 821.24897056 366.05910754 821.24291992 362.05297852 C821.25134918 360.25675301 821.25134918 360.25675301 821.25994873 358.42424011 C821.25575424 357.33751007 821.25155975 356.25078003 821.24723816 355.13111877 C821.24805531 353.70889684 821.24805531 353.70889684 821.24888897 352.25794315 C821.21606363 349.79914635 821.21606363 349.79914635 819 348 C816.96987375 347.69838202 816.96987375 347.69838202 814.59775871 347.75045234 C813.19811965 347.74332612 813.19811965 347.74332612 811.77020505 347.73605594 C810.73612908 347.74102412 809.70205311 347.7459923 808.6366415 347.75111103 C806.99253014 347.7472001 806.99253014 347.7472001 805.31520441 347.74321017 C801.59862428 347.7368543 797.88220955 347.74490772 794.16563416 347.75276184 C791.49174538 347.75117538 788.81786804 347.74879705 786.14398199 347.74544543 C780.30790133 347.7397445 774.4718595 347.74152791 768.63578033 347.7481308 C759.95761943 347.75792227 751.27948712 347.75632283 742.60132293 347.7523805 C728.00492502 347.74609521 713.40854323 347.74928849 698.81214714 347.75797462 C684.35317777 347.7665773 669.89421565 347.77149506 655.43524361 347.77130699 C654.5371735 347.77129935 653.63910339 347.7712917 652.71381903 347.77128382 C649.06863105 347.77124292 645.42344307 347.77117731 641.77825508 347.77107801 C607.5572875 347.77017118 573.33633096 347.78012836 539.11536722 347.79550768 C508.68392484 347.8091335 478.25249032 347.81536895 447.82104492 347.81469727 C445.86702241 347.81465685 443.9129999 347.81461649 441.95897739 347.81457619 C440.99296512 347.81455584 440.02695284 347.81453548 439.03166746 347.81451452 C434.16932248 347.81441373 429.30697751 347.81432314 424.44463253 347.81424427 C423.48545489 347.81422756 422.52627726 347.81421084 421.53803363 347.81419362 C396.14072274 347.81382879 370.74341284 347.81836344 345.34610277 347.82457083 C344.44315625 347.82479111 343.54020973 347.82501138 342.60990119 347.82523832 C338.97861021 347.8261266 335.34731922 347.82701498 331.71602824 347.82792928 C319.06070902 347.831094 306.40539058 347.83259915 293.75007099 347.83304077 C277.44552766 347.83363681 261.14099082 347.83761014 244.83645027 347.84747223 C236.205013 347.85260242 227.57358527 347.85499156 218.94214655 347.85347604 C213.1874652 347.85274503 207.43279318 347.85561963 201.67811481 347.86151985 C198.39215304 347.86478926 195.10621551 347.86589627 191.82025217 347.86375926 C188.29265226 347.86171761 184.76511204 347.8657161 181.23751736 347.87136555 C180.20110022 347.86931023 179.16468308 347.86725491 178.09685937 347.86513731 C177.16627018 347.86789705 176.23568099 347.8706568 175.27689213 347.87350017 C174.46889203 347.87379167 173.66089193 347.87408317 172.82840699 347.8743835 C170.98083981 347.80016753 170.98083981 347.80016753 170 349 Z M828 349 C827.90130553 350.98504109 827.8744431 352.97365806 827.87415886 354.96115112 C827.87155111 356.26531542 827.86894336 357.56947971 827.86625659 358.91316414 C827.86841913 360.3794468 827.8706758 361.84572933 827.87301636 363.31201172 C827.87186553 364.85483779 827.87027827 366.39766359 827.86828911 367.94048882 C827.86409049 372.20049483 827.86618887 376.46047861 827.86927533 380.72048473 C827.87152706 385.3067611 827.86805096 389.89303349 827.86529541 394.47930908 C827.86083627 403.47189454 827.86181482 412.46447168 827.86470805 421.45705748 C827.86696152 428.76204211 827.86727485 436.0670244 827.86618423 443.37200928 C827.866031 444.40957017 827.86587777 445.44713106 827.86571989 446.51613319 C827.86540018 448.62356393 827.86507597 450.73099466 827.8647473 452.8384254 C827.86189209 472.62475265 827.86518018 492.41107527 827.87054767 512.19740176 C827.87501574 529.19475453 827.87423982 546.19210048 827.86962891 563.18945312 C827.86428387 582.90238876 827.86216678 602.61532034 827.86524117 622.32825661 C827.86555974 624.42816798 827.86587411 626.52807935 827.86618423 628.62799072 C827.86633851 629.66133226 827.86649279 630.6946738 827.86665174 631.75932872 C827.86751711 639.06007349 827.86605359 646.36081569 827.86370468 653.66156006 C827.86090727 662.55221457 827.8616437 671.44286025 827.86698543 680.33351374 C827.86962324 684.87429701 827.87062616 689.41506552 827.86733627 693.95584869 C827.86437494 698.10575324 827.86596338 702.25562924 827.87131383 706.40553117 C827.87243871 707.91358418 827.87184527 709.42163957 827.86943804 710.92969108 C827.8664347 712.9660754 827.870087 715.00246641 827.87415886 717.03884888 C827.87432121 718.17405031 827.87448356 719.30925175 827.87465084 720.47885323 C827.71421744 722.93792446 827.71421744 722.93792446 829 724 C830.84530173 724.09866627 832.69442088 724.12632156 834.5423584 724.12698364 C835.74551193 724.12980347 836.94866547 724.13262329 838.1882782 724.13552856 C839.53372207 724.13358397 840.8791658 724.13153579 842.22460938 724.12939453 C843.6319839 724.13074854 845.03935807 724.13252847 846.44673157 724.13470459 C850.27927068 724.13927895 854.11178299 724.13748935 857.94432259 724.1343255 C861.94640299 724.13180192 865.94848103 724.13413944 869.95056152 724.13571167 C876.67261163 724.13753337 883.39465077 724.13512705 890.11669922 724.13037109 C897.89938724 724.12492847 905.68204907 724.12669113 913.46473646 724.1321975 C920.13478301 724.13672862 926.80482166 724.13737918 933.47486925 724.13475883 C937.46385662 724.13319605 941.45283165 724.13300232 945.44181824 724.13629532 C949.19115112 724.13917402 952.94045008 724.13719837 956.68977928 724.13140106 C958.06970857 724.13007346 959.44964069 724.13046759 960.82956886 724.13266373 C962.70559211 724.13537517 964.58162155 724.13138046 966.4576416 724.12698364 C967.50995216 724.12660662 968.56226273 724.12622959 969.64646149 724.12584114 C971.95760268 724.26517861 971.95760268 724.26517861 973 723 C973.10065815 719.93609511 973.13614435 716.89469029 973.12939453 713.83032227 C973.13114685 712.86778534 973.13289917 711.90524841 973.13470459 710.9135437 C973.13912536 707.71447983 973.13618409 704.51547073 973.1328125 701.31640625 C973.13348553 699.10302215 973.13445555 696.88963812 973.13571167 694.67625427 C973.13718899 690.02984923 973.13503319 685.38346337 973.13037109 680.73706055 C973.12467711 674.77017214 973.12795051 668.80332874 973.13394356 662.83644199 C973.13755107 658.26323607 973.13640965 653.69004088 973.13381577 649.11683464 C973.13314685 646.91632011 973.13397368 644.71580462 973.13629532 642.51529121 C973.13882458 639.44319186 973.13497718 636.37116612 973.12939453 633.29907227 C973.13243088 631.92362999 973.13243088 631.92362999 973.13552856 630.520401 C973.26221484 626.12275312 973.26221484 626.12275312 972 622 C971.88906684 619.39726568 971.83589922 616.82208634 971.83203125 614.21875 C971.82870285 613.44946167 971.82537445 612.68017334 971.82194519 611.88757324 C971.81687996 610.26017862 971.81453674 608.6327736 971.81469727 607.00537109 C971.8125087 604.50991825 971.79434346 602.01490595 971.77539062 599.51953125 C971.77245709 597.94010568 971.77047203 596.36067801 971.76953125 594.78125 C971.76234573 594.0322644 971.75516022 593.28327881 971.74775696 592.51159668 C971.7711724 587.2288276 971.7711724 587.2288276 974 585 C976.6875 584.8125 976.6875 584.8125 980 586 C982.73143964 588.71183601 984.82885156 591.83225883 987 595 C987.6909375 596.0003125 988.381875 597.000625 989.09375 598.03125 C990.21394763 599.65632543 991.33399308 601.28152657 992.44580078 602.91235352 C995.2185908 606.95556634 998.15815479 610.8339905 1001.1875 614.6875 C1004.68035736 619.13783068 1007.69187955 623.68664391 1010.50390625 628.59375 C1012.74246724 632.19415096 1015.41108539 635.39783105 1018.10546875 638.6640625 C1019.79350422 640.74539283 1021.35115038 642.8598855 1022.875 645.0625 C1024.67797054 648.03172111 1024.67797054 648.03172111 1027 649 C1029.10248875 649.11222566 1031.20855711 649.15934383 1033.31396484 649.17700195 C1033.96132095 649.18357315 1034.60867706 649.19014435 1035.27565002 649.19691467 C1037.420747 649.2166467 1039.565774 649.22830929 1041.7109375 649.23828125 C1042.80946989 649.24439454 1042.80946989 649.24439454 1043.93019485 649.25063133 C1047.80567391 649.27149063 1051.68111757 649.28579351 1055.55664062 649.29516602 C1059.56066182 649.30623667 1063.5641282 649.34064373 1067.56795311 649.38033772 C1070.64603718 649.40647298 1073.72398835 649.414855 1076.80217361 649.41844749 C1078.27818173 649.4233207 1079.75418362 649.4349557 1081.23008347 649.45348549 C1083.29625286 649.4778157 1085.36097753 649.4769245 1087.42724609 649.4699707 C1088.60257904 649.47583694 1089.77791199 649.48170319 1090.98886108 649.48774719 C1094.62598564 648.89860224 1095.72208976 647.82242131 1098 645 C1098.49242187 644.39800781 1098.98484375 643.79601562 1099.4921875 643.17578125 C1102.60765432 638.97782173 1105.56758529 634.70655871 1108.44140625 630.33984375 C1110.04832115 627.92745773 1111.70391034 625.55582435 1113.375 623.1875 C1115.97266151 619.50510072 1118.47024201 615.77089724 1120.9375 612 C1124.07480399 607.26376115 1127.43662917 602.83813562 1131.05859375 598.46484375 C1133.69155611 595.12198811 1135.93698627 591.55683198 1138.1640625 587.93359375 C1140.62013771 585.34687624 1142.51136646 585.26655779 1146 585 C1146.66 585 1147.32 585 1148 585 C1148.0246985 588.95099928 1148.04285923 592.90196874 1148.05493164 596.85302734 C1148.06244036 598.85906551 1148.0751447 600.86508202 1148.08789062 602.87109375 C1148.09272461 604.75634766 1148.09272461 604.75634766 1148.09765625 606.6796875 C1148.10551147 608.42354736 1148.10551147 608.42354736 1148.11352539 610.20263672 C1148 613 1148 613 1147 615 C1146.90596475 616.44218337 1146.87370324 617.8886319 1146.87301636 619.33387756 C1146.86878662 620.69892677 1146.86878662 620.69892677 1146.86447144 622.09155273 C1146.86649567 623.0926709 1146.8685199 624.09378906 1146.87060547 625.12524414 C1146.86885315 626.17731552 1146.86710083 627.2293869 1146.86529541 628.31333923 C1146.86088056 631.8039615 1146.86381341 635.29453344 1146.8671875 638.78515625 C1146.86651441 641.20128896 1146.86554434 643.6174216 1146.86428833 646.03355408 C1146.8628119 651.10188439 1146.86496437 656.17019711 1146.86962891 661.23852539 C1146.8753292 667.75141073 1146.87204493 674.26425488 1146.86605644 680.77713871 C1146.86245197 685.76721001 1146.86358884 690.75727147 1146.86618423 695.74734306 C1146.86685366 698.14964236 1146.86602454 700.55194253 1146.86370468 702.9542408 C1146.86117969 706.30423495 1146.86501645 709.65416132 1146.87060547 713.00415039 C1146.86756912 714.50886398 1146.86756912 714.50886398 1146.86447144 716.04397583 C1146.86729126 716.95118881 1146.87011108 717.85840179 1146.87301636 718.79310608 C1146.87339338 719.58601579 1146.87377041 720.3789255 1146.87415886 721.19586277 C1146.80326451 723.02199476 1146.80326451 723.02199476 1148 724 C1149.84530173 724.09866627 1151.69442088 724.12632156 1153.5423584 724.12698364 C1154.74551193 724.12980347 1155.94866547 724.13262329 1157.1882782 724.13552856 C1158.53372207 724.13358397 1159.8791658 724.13153579 1161.22460938 724.12939453 C1162.6319839 724.13074854 1164.03935807 724.13252847 1165.44673157 724.13470459 C1169.27927068 724.13927895 1173.11178299 724.13748935 1176.94432259 724.1343255 C1180.94640299 724.13180192 1184.94848103 724.13413944 1188.95056152 724.13571167 C1195.67261163 724.13753337 1202.39465077 724.13512705 1209.11669922 724.13037109 C1216.89938724 724.12492847 1224.68204907 724.12669113 1232.46473646 724.1321975 C1239.13478301 724.13672862 1245.80482166 724.13737918 1252.47486925 724.13475883 C1256.46385662 724.13319605 1260.45283165 724.13300232 1264.44181824 724.13629532 C1268.19115112 724.13917402 1271.94045008 724.13719837 1275.68977928 724.13140106 C1277.06970857 724.13007346 1278.44964069 724.13046759 1279.82956886 724.13266373 C1281.70559211 724.13537517 1283.58162155 724.13138046 1285.4576416 724.12698364 C1286.50995216 724.12660662 1287.56226273 724.12622959 1288.64646149 724.12584114 C1290.95760268 724.26517861 1290.95760268 724.26517861 1292 723 C1292.09869447 721.01495891 1292.1255569 719.02634194 1292.12584114 717.03884888 C1292.12844889 715.73468458 1292.13105664 714.43052029 1292.13374341 713.08683586 C1292.13158087 711.6205532 1292.1293242 710.15427067 1292.12698364 708.68798828 C1292.12813447 707.14516221 1292.12972173 705.60233641 1292.13171089 704.05951118 C1292.13590951 699.79950517 1292.13381113 695.53952139 1292.13072467 691.27951527 C1292.12847294 686.6932389 1292.13194904 682.10696651 1292.13470459 677.52069092 C1292.13916373 668.52810546 1292.13818518 659.53552832 1292.13529195 650.54294252 C1292.13303848 643.23795789 1292.13272515 635.9329756 1292.13381577 628.62799072 C1292.133969 627.59042983 1292.13412223 626.55286894 1292.13428011 625.48386681 C1292.13459982 623.37643607 1292.13492403 621.26900534 1292.1352527 619.1615746 C1292.13810791 599.37524735 1292.13481982 579.58892473 1292.12945233 559.80259824 C1292.12498426 542.80524547 1292.12576018 525.80789952 1292.13037109 508.81054688 C1292.13571613 489.09761124 1292.13783322 469.38467966 1292.13475883 449.67174339 C1292.13444026 447.57183202 1292.13412589 445.47192065 1292.13381577 443.37200928 C1292.13366149 442.33866774 1292.13350721 441.3053262 1292.13334826 440.24067128 C1292.13248289 432.93992651 1292.13394641 425.63918431 1292.13629532 418.33843994 C1292.13909273 409.44778543 1292.1383563 400.55713975 1292.13301457 391.66648626 C1292.13037676 387.12570299 1292.12937384 382.58493448 1292.13266373 378.04415131 C1292.13562506 373.89424676 1292.13403662 369.74437076 1292.12868617 365.59446883 C1292.12756129 364.08641582 1292.12815473 362.57836043 1292.13056196 361.07030892 C1292.1335653 359.0339246 1292.129913 356.99753359 1292.12584114 354.96115112 C1292.12567879 353.82594969 1292.12551644 352.69074825 1292.12534916 351.52114677 C1292.28578256 349.06207554 1292.28578256 349.06207554 1291 348 C1289.44730087 347.89108987 1287.88968829 347.85149232 1286.33322144 347.83937073 C1285.32385025 347.8293251 1284.31447906 347.81927948 1283.27452087 347.80892944 C1282.1576741 347.80309845 1281.04082733 347.79726746 1279.89013672 347.79125977 C1278.1365107 347.77658409 1278.1365107 347.77658409 1276.34745789 347.76161194 C1272.45822299 347.73157002 1268.56898976 347.70994665 1264.6796875 347.69140625 C1264.01803668 347.68810893 1263.35638585 347.68481161 1262.674685 347.68141437 C1256.43355328 347.6506194 1250.19241681 347.62391115 1243.951231 347.60699558 C1235.96945753 347.58510983 1227.98835867 347.54319985 1220.00685489 347.47355801 C1214.394886 347.42625772 1208.78309865 347.40205368 1203.1709367 347.3947987 C1199.81955302 347.38984897 1196.4695299 347.37180411 1193.1182518 347.3350544 C1189.37371036 347.29620916 1185.63092505 347.29509784 1181.88623047 347.30297852 C1180.22917839 347.2729776 1180.22917839 347.2729776 1178.53865051 347.24237061 C1172.307101 347.30122659 1168.74848127 348.00833377 1164.27054024 352.48235989 C1162.64256862 354.4269461 1161.38765344 356.35748527 1160.25 358.625 C1157.43369458 363.6639032 1153.94714178 367.59365647 1149.95800781 371.71337891 C1146.86926755 374.92632829 1144.39509763 378.24680306 1142 382 C1140.68334336 383.67987227 1139.34736973 385.34466005 1138 387 C1136.93567712 388.37358948 1135.87339915 389.74876447 1134.8125 391.125 C1132.10627838 394.61932899 1129.3232167 398.03713508 1126.5 401.4375 C1122.99802384 405.69329136 1119.79001577 410.06413988 1116.671875 414.60546875 C1110.45713765 423.50648275 1103.36266333 431.8271498 1096.375 440.125 C1092.57464994 444.72542375 1088.9528725 449.46397808 1085.3125 454.19140625 C1081.36936591 459.29374874 1077.31503525 464.29336467 1073.21875 469.2734375 C1070.52762843 472.58048479 1067.91080664 475.94010803 1065.3125 479.3203125 C1063.25219063 481.95701794 1063.25219063 481.95701794 1060.75390625 482.3828125 C1056.7695776 481.82896256 1055.52883846 479.87886993 1052.9375 476.875 C1051.68259766 475.44800781 1051.68259766 475.44800781 1050.40234375 473.9921875 C1048.07301836 471.09094645 1046.0232582 468.11989814 1044 465 C1040.74626312 460.34394836 1037.20870332 456.06752284 1033.375 451.875 C1030.18538462 448.38619121 1027.50702795 444.99267414 1025 441 C1023.68334336 439.32012773 1022.34736973 437.65533995 1021 436 C1019.93567712 434.62641052 1018.87339915 433.25123553 1017.8125 431.875 C1012.80047886 425.41865449 1007.64739807 419.06759873 1002.3125 412.875 C999.80379737 409.7560724 997.6534273 406.4967254 995.4609375 403.15234375 C993.90816156 400.86469792 992.21117157 398.74260932 990.40625 396.6484375 C985.86844311 391.32911943 981.59145667 385.77815099 977.3125 380.25 C975.39306682 377.77037026 973.45071779 375.34354078 971.4375 372.9375 C969.63083305 370.7602347 967.92849088 368.58421095 966.25 366.3125 C963.69302375 362.88111737 961.0579671 359.52141649 958.375 356.1875 C957.27285156 354.81658203 957.27285156 354.81658203 956.1484375 353.41796875 C952.57131555 349.36974843 952.57131555 349.36974843 947.62090015 347.6280632 C946.73359054 347.62952976 945.84628092 347.63099632 944.93208313 347.63250732 C943.90991699 347.62693817 942.88775085 347.62136902 941.83460999 347.6156311 C940.71912277 347.62484589 939.60363556 347.63406067 938.4543457 347.64355469 C937.27518585 347.64151031 936.096026 347.63946594 934.88113403 347.63735962 C931.65192181 347.63486775 928.42309309 347.64574706 925.19393563 347.66288662 C921.81648812 347.67792897 918.43904462 347.67674867 915.06156921 347.67755127 C909.39312285 347.68124178 903.72479774 347.69620129 898.05639648 347.71875 C890.77231741 347.74766611 883.48833575 347.75797737 876.20420551 347.7624321 C869.94835136 347.76640634 863.69251853 347.77890582 857.4366796 347.79277897 C855.42184545 347.79688302 853.40701206 347.79980597 851.39217567 347.80257416 C847.64723427 347.80940994 843.90238346 347.82302845 840.1574707 347.83886719 C839.0359108 347.83998505 837.91435089 347.84110291 836.75880432 347.84225464 C835.74509766 347.84796478 834.73139099 347.85367493 833.68696594 347.85955811 C832.35769813 347.8640201 832.35769813 347.8640201 831.00157642 347.86857224 C829.00120023 347.77904744 829.00120023 347.77904744 828 349 Z M1312 349 C1311.90130553 350.98504109 1311.8744431 352.97365806 1311.87415886 354.96115112 C1311.87155111 356.26531542 1311.86894336 357.56947971 1311.86625659 358.91316414 C1311.86841913 360.3794468 1311.8706758 361.84572933 1311.87301636 363.31201172 C1311.87186553 364.85483779 1311.87027827 366.39766359 1311.86828911 367.94048882 C1311.86409049 372.20049483 1311.86618887 376.46047861 1311.86927533 380.72048473 C1311.87152706 385.3067611 1311.86805096 389.89303349 1311.86529541 394.47930908 C1311.86083627 403.47189454 1311.86181482 412.46447168 1311.86470805 421.45705748 C1311.86696152 428.76204211 1311.86727485 436.0670244 1311.86618423 443.37200928 C1311.866031 444.40957017 1311.86587777 445.44713106 1311.86571989 446.51613319 C1311.86540018 448.62356393 1311.86507597 450.73099466 1311.8647473 452.8384254 C1311.86189209 472.62475265 1311.86518018 492.41107527 1311.87054767 512.19740176 C1311.87501574 529.19475453 1311.87423982 546.19210048 1311.86962891 563.18945312 C1311.86428387 582.90238876 1311.86216678 602.61532034 1311.86524117 622.32825661 C1311.86555974 624.42816798 1311.86587411 626.52807935 1311.86618423 628.62799072 C1311.86633851 629.66133226 1311.86649279 630.6946738 1311.86665174 631.75932872 C1311.86751711 639.06007349 1311.86605359 646.36081569 1311.86370468 653.66156006 C1311.86090727 662.55221457 1311.8616437 671.44286025 1311.86698543 680.33351374 C1311.86962324 684.87429701 1311.87062616 689.41506552 1311.86733627 693.95584869 C1311.86437494 698.10575324 1311.86596338 702.25562924 1311.87131383 706.40553117 C1311.87243871 707.91358418 1311.87184527 709.42163957 1311.86943804 710.92969108 C1311.8664347 712.9660754 1311.870087 715.00246641 1311.87415886 717.03884888 C1311.87432121 718.17405031 1311.87448356 719.30925175 1311.87465084 720.47885323 C1311.71421744 722.93792446 1311.71421744 722.93792446 1313 724 C1314.84530173 724.09866627 1316.69442088 724.12632156 1318.5423584 724.12698364 C1319.74551193 724.12980347 1320.94866547 724.13262329 1322.1882782 724.13552856 C1323.53372207 724.13358397 1324.8791658 724.13153579 1326.22460938 724.12939453 C1327.6319839 724.13074854 1329.03935807 724.13252847 1330.44673157 724.13470459 C1334.27927068 724.13927895 1338.11178299 724.13748935 1341.94432259 724.1343255 C1345.94640299 724.13180192 1349.94848103 724.13413944 1353.95056152 724.13571167 C1360.67261163 724.13753337 1367.39465077 724.13512705 1374.11669922 724.13037109 C1381.89938724 724.12492847 1389.68204907 724.12669113 1397.46473646 724.1321975 C1404.13478301 724.13672862 1410.80482166 724.13737918 1417.47486925 724.13475883 C1421.46385662 724.13319605 1425.45283165 724.13300232 1429.44181824 724.13629532 C1433.19115112 724.13917402 1436.94045008 724.13719837 1440.68977928 724.13140106 C1442.06970857 724.13007346 1443.44964069 724.13046759 1444.82956886 724.13266373 C1446.70559211 724.13537517 1448.58162155 724.13138046 1450.4576416 724.12698364 C1451.50995216 724.12660662 1452.56226273 724.12622959 1453.64646149 724.12584114 C1455.95760268 724.26517861 1455.95760268 724.26517861 1457 723 C1457.10063123 720.00241803 1457.13614724 717.02783697 1457.12939453 714.02978516 C1457.13114685 713.08836166 1457.13289917 712.14693817 1457.13470459 711.17698669 C1457.13912569 708.04766018 1457.13618374 704.91838965 1457.1328125 701.7890625 C1457.13348558 699.62291452 1457.13445564 697.45676662 1457.13571167 695.2906189 C1457.13718908 690.74256677 1457.13503311 686.19453423 1457.13037109 681.64648438 C1457.12468057 675.80973051 1457.12794825 669.97302269 1457.13394356 664.13627052 C1457.13755378 659.65995943 1457.13640833 655.18365929 1457.13381577 650.70734787 C1457.13314742 648.55510833 1457.13397169 646.40286781 1457.13629532 644.25062943 C1457.13882862 641.24339408 1457.13497128 638.23623366 1457.12939453 635.22900391 C1457.13243088 633.88700676 1457.13243088 633.88700676 1457.13552856 632.51789856 C1457.13270874 631.69904678 1457.12988892 630.88019501 1457.12698364 630.03652954 C1457.12660662 629.32528238 1457.12622959 628.61403522 1457.12584114 627.88123512 C1457.06419438 625.77224309 1457.06419438 625.77224309 1456 623 C1455.89146921 620.43739659 1455.83598178 617.90277287 1455.83203125 615.33984375 C1455.82870285 614.59416641 1455.82537445 613.84848907 1455.82194519 613.08021545 C1455.81688764 611.50587582 1455.8145365 609.93152549 1455.81469727 608.35717773 C1455.81250501 605.94301884 1455.79432168 603.52931278 1455.77539062 601.11523438 C1455.77245766 599.58593907 1455.77047222 598.05664158 1455.76953125 596.52734375 C1455.76234573 595.80336899 1455.75516022 595.07939423 1455.74775696 594.33348083 C1455.77116697 589.22883303 1455.77116697 589.22883303 1458 587 C1461.60170344 587.11134298 1463.38614568 587.35469823 1465.90625 590.00390625 C1466.69515625 591.27041016 1466.69515625 591.27041016 1467.5 592.5625 C1468.0878125 593.47128906 1468.675625 594.38007812 1469.28125 595.31640625 C1469.8484375 596.20199219 1470.415625 597.08757812 1471 598 C1471.98506132 599.34440767 1472.98407657 600.67875916 1474 602 C1478.35548304 607.76085223 1482.60444504 613.61064752 1486.3125 619.8125 C1488.95914975 624.13623474 1492.08425155 628.07945686 1495.19750977 632.0703125 C1498.41281252 636.20162009 1501.45062003 640.42718468 1504.421875 644.73828125 C1505.90430156 646.86284803 1507.43458256 648.9361207 1509 651 C1513.07479072 656.38261479 1516.90269621 661.93984311 1520.71875 667.5078125 C1523.68762293 671.81267825 1526.74130967 675.95900796 1530.0625 680 C1533.2973729 683.98138203 1535.94557878 688.07022506 1538.51171875 692.50390625 C1541.09670852 696.83936153 1544.05025564 700.90761782 1547 705 C1547.66386719 705.92167969 1548.32773438 706.84335937 1549.01171875 707.79296875 C1550.99811342 710.5360852 1552.99081816 713.27352147 1555 716 C1555.36389171 716.65817183 1555.72778341 717.31634367 1556.10270214 717.99446011 C1558.11964006 721.31153575 1559.65090967 723.60232923 1563.47551918 724.72970772 C1566.60053015 724.99341475 1569.63729634 725.00099698 1572.77270508 724.92407227 C1573.95215698 724.92684677 1575.13160889 724.92962128 1576.34680176 724.93247986 C1579.56858002 724.93208717 1582.78757066 724.89623893 1586.00885224 724.84408307 C1589.38085817 724.7976677 1592.75289157 724.79601992 1596.12516785 724.78929138 C1601.78202252 724.77184714 1607.43800693 724.72552814 1613.09448242 724.65844727 C1621.081074 724.56376817 1629.06733437 724.52048176 1637.05438769 724.48781502 C1648.32785812 724.43880246 1659.60138346 724.36562396 1670.87426758 724.24047852 C1671.99268539 724.23150543 1673.11110321 724.22253235 1674.26341248 724.21328735 C1675.77963699 724.19388344 1675.77963699 724.19388344 1677.32649231 724.17408752 C1678.21007321 724.16461877 1679.09365412 724.15515001 1680.0040102 724.14539433 C1681.9992265 724.21872897 1681.9992265 724.21872897 1683 723 C1683.09869447 721.01495891 1683.1255569 719.02634194 1683.12584114 717.03884888 C1683.12844889 715.73468458 1683.13105664 714.43052029 1683.13374341 713.08683586 C1683.13158087 711.6205532 1683.1293242 710.15427067 1683.12698364 708.68798828 C1683.12813447 707.14516221 1683.12972173 705.60233641 1683.13171089 704.05951118 C1683.13590951 699.79950517 1683.13381113 695.53952139 1683.13072467 691.27951527 C1683.12847294 686.6932389 1683.13194904 682.10696651 1683.13470459 677.52069092 C1683.13916373 668.52810546 1683.13818518 659.53552832 1683.13529195 650.54294252 C1683.13303848 643.23795789 1683.13272515 635.9329756 1683.13381577 628.62799072 C1683.133969 627.59042983 1683.13412223 626.55286894 1683.13428011 625.48386681 C1683.13459982 623.37643607 1683.13492403 621.26900534 1683.1352527 619.1615746 C1683.13810791 599.37524735 1683.13481982 579.58892473 1683.12945233 559.80259824 C1683.12498426 542.80524547 1683.12576018 525.80789952 1683.13037109 508.81054688 C1683.13571613 489.09761124 1683.13783322 469.38467966 1683.13475883 449.67174339 C1683.13444026 447.57183202 1683.13412589 445.47192065 1683.13381577 443.37200928 C1683.13366149 442.33866774 1683.13350721 441.3053262 1683.13334826 440.24067128 C1683.13248289 432.93992651 1683.13394641 425.63918431 1683.13629532 418.33843994 C1683.13909273 409.44778543 1683.1383563 400.55713975 1683.13301457 391.66648626 C1683.13037676 387.12570299 1683.12937384 382.58493448 1683.13266373 378.04415131 C1683.13562506 373.89424676 1683.13403662 369.74437076 1683.12868617 365.59446883 C1683.12756129 364.08641582 1683.12815473 362.57836043 1683.13056196 361.07030892 C1683.1335653 359.0339246 1683.129913 356.99753359 1683.12584114 354.96115112 C1683.12567879 353.82594969 1683.12551644 352.69074825 1683.12534916 351.52114677 C1683.28578256 349.06207554 1683.28578256 349.06207554 1682 348 C1680.16967792 347.89917362 1678.33542931 347.86923076 1676.50233459 347.86628723 C1675.30904037 347.86202225 1674.11574615 347.85775726 1672.8862915 347.85336304 C1671.55187985 347.8537126 1670.21746822 347.85417416 1668.88305664 347.85473633 C1667.48715627 347.8517464 1666.09125672 347.84834426 1664.69535828 347.84455872 C1660.89374716 347.83569756 1657.09215852 347.83337972 1653.29053807 347.83274293 C1650.12188046 347.83179557 1646.95322813 347.82811929 1643.78457254 347.82457083 C1636.31153849 347.81641823 1628.8385165 347.81398733 1621.36547852 347.81469727 C1613.64527426 347.81529827 1605.92513983 347.80474372 1598.20495325 347.7889536 C1591.58669424 347.77589742 1584.96845809 347.77051256 1578.35018629 347.77115268 C1574.39300456 347.77140823 1570.43588485 347.76852553 1566.4787159 347.75797462 C1562.75808041 347.74832586 1559.03756662 347.74819214 1555.31692696 347.75549126 C1553.2943577 347.75704323 1551.27178855 347.74866793 1549.24923706 347.74005127 C1548.05312302 347.74424576 1546.85700897 347.74844025 1545.62464905 347.75276184 C1544.58063462 347.75221707 1543.5366202 347.75167231 1542.46096897 347.75111103 C1539.82249538 347.75592589 1539.82249538 347.75592589 1538 350 C1537.69914329 352.13425982 1537.69914329 352.13425982 1537.75276184 354.63085938 C1537.74856735 355.60676025 1537.74437286 356.58266113 1537.74005127 357.58813477 C1537.74567078 358.66248779 1537.75129028 359.73684082 1537.75708008 360.84375 C1537.75423256 362.53649048 1537.75423256 362.53649048 1537.75132751 364.26342773 C1537.74761039 368.00902157 1537.75833734 371.75442327 1537.76953125 375.5 C1537.77072263 378.09309873 1537.7711763 380.68619789 1537.7709198 383.27929688 C1537.77248629 388.72008146 1537.78054687 394.1607961 1537.79418945 399.6015625 C1537.80991546 405.89656731 1537.81518758 412.19151108 1537.8144539 418.48653412 C1537.81384399 424.53603579 1537.81905384 430.5855125 1537.82724571 436.63500977 C1537.83043688 439.21231974 1537.83240083 441.78963152 1537.83313942 444.36694336 C1537.83529824 447.96341041 1537.84403261 451.55979957 1537.85473633 455.15625 C1537.85428314 456.23060303 1537.85382996 457.30495605 1537.85336304 458.41186523 C1537.85976051 459.87571655 1537.85976051 459.87571655 1537.86628723 461.36914062 C1537.86796308 462.22012329 1537.86963892 463.07110596 1537.87136555 463.94787598 C1537.87005853 466.06543498 1537.87005853 466.06543498 1539 468 C1539.14879681 470.30921203 1539.22134584 472.6236764 1539.25 474.9375 C1539.28867188 476.80728516 1539.28867188 476.80728516 1539.328125 478.71484375 C1539 482 1539 482 1537.796875 484.00390625 C1536 485 1536 485 1533.51953125 484.99609375 C1530.17779552 483.67494242 1529.44246664 482.16744097 1527.6875 479.0625 C1525.33636207 475.11503631 1522.91539647 471.49011079 1520 467.9375 C1516.71801356 463.93600114 1513.71289412 459.82270915 1510.77734375 455.5625 C1507.60063106 450.9824483 1504.28947031 446.49939042 1501 442 C1497.0950874 436.65879771 1493.20421372 431.3148745 1489.4375 425.875 C1487.17843026 422.62276293 1484.83496939 419.47785556 1482.375 416.375 C1479.81664316 413.12611321 1477.58034303 409.82443045 1475.4375 406.29296875 C1471.09416964 399.36488473 1466.36509585 392.62711731 1461.25 386.25 C1458.45554011 382.73917742 1456.27297927 379.13603201 1454.23828125 375.140625 C1452.73112404 372.53519236 1450.89233426 370.34024457 1449 368 C1446.77461545 364.80353855 1444.59402076 361.57913321 1442.4140625 358.3515625 C1442.01995273 357.80650307 1441.62584295 357.26144363 1441.21979046 356.69986725 C1440.39523634 355.55079075 1439.61076254 354.37204814 1438.86563587 353.16994476 C1436.76117918 350.16496289 1435.15447515 348.29649916 1431.5257473 347.36454773 C1428.40584947 347.13000996 1425.35546479 347.12285368 1422.22729492 347.18945312 C1421.04784302 347.18682465 1419.86839111 347.18419617 1418.65319824 347.18148804 C1415.43167945 347.1813048 1412.21229302 347.21215368 1408.99114776 347.25731087 C1405.61911579 347.29745826 1402.24706631 347.298534 1398.87483215 347.30407715 C1393.21807638 347.31876959 1387.56198673 347.35881314 1381.90551758 347.41699219 C1373.91890848 347.49909659 1365.93257103 347.5353593 1357.94561231 347.56250858 C1351.74885621 347.5851171 1345.55215412 347.61933122 1339.35546875 347.65625 C1338.35643796 347.66210837 1338.35643796 347.66210837 1337.33722472 347.6680851 C1332.93328841 347.69492785 1328.52953937 347.73254437 1324.12573242 347.77539062 C1323.00731461 347.78279266 1321.88889679 347.7901947 1320.73658752 347.79782104 C1319.72577118 347.80931183 1318.71495483 347.82080261 1317.67350769 347.8326416 C1316.78992679 347.84081154 1315.90634588 347.84898148 1314.9959898 347.85739899 C1313.0007262 347.78096742 1313.0007262 347.78096742 1312 349 Z " fill="#000000" transform="translate(4,0)"/>
</svg>
