<?xml version="1.0" encoding="UTF-8"?>
<svg version="1.1" xmlns="http://www.w3.org/2000/svg" width="500" height="500">
<path d="M0 0 C1.21720482 0.00136711 1.21720482 0.00136711 2.45899963 0.00276184 C3.29250443 -0.00152328 4.12600922 -0.00580841 4.98477173 -0.01022339 C6.74920238 -0.01597126 8.51365674 -0.01646359 10.27809143 -0.01213074 C12.98008121 -0.00897336 15.68097367 -0.03241436 18.38282776 -0.05778503 C20.095717 -0.06005822 21.80860919 -0.06076143 23.52149963 -0.05973816 C24.33094528 -0.06894791 25.14039093 -0.07815765 25.97436523 -0.08764648 C31.60292546 -0.04115555 31.60292546 -0.04115555 33.66368103 1.5243988 C35.32163262 3.64197838 36.17890671 5.62941941 37.14137268 8.14216614 C37.71162422 9.61335152 37.71162422 9.61335152 38.293396 11.11425781 C38.89357292 12.69875481 38.89357292 12.69875481 39.50587463 14.31526184 C39.92335464 15.3986232 40.34083466 16.48198456 40.77096558 17.59817505 C42.1028804 21.05963161 43.42362841 24.5252284 44.74415588 27.99104309 C45.6451165 30.33832943 46.54680039 32.68533829 47.44923401 35.03205872 C49.66011117 40.78602655 51.86183467 46.54343307 54.05665588 52.30354309 C57.04194816 45.19720791 59.96786355 38.0754536 62.75587463 30.88948059 C63.41384203 29.2057947 64.0720517 27.52220347 64.73048401 25.83869934 C65.74668203 23.23693534 66.76122127 20.634568 67.77174377 18.03059387 C68.76172532 15.48168131 69.75823133 12.93540228 70.75587463 10.38948059 C71.05797348 9.6062442 71.36007233 8.82300781 71.67132568 8.01603699 C73.82940423 2.53079475 73.82940423 2.53079475 76.05665588 0.30354309 C78.89031196 0.09134426 81.6237361 -0.0004226 84.45899963 0.00276184 C85.29250443 -0.00152328 86.12600922 -0.00580841 86.98477173 -0.01022339 C88.74920238 -0.01597126 90.51365674 -0.01646359 92.27809143 -0.01213074 C94.98008121 -0.00897336 97.68097367 -0.03241436 100.38282776 -0.05778503 C102.095717 -0.06005822 103.80860919 -0.06076143 105.52149963 -0.05973816 C106.33094528 -0.06894791 107.14039093 -0.07815765 107.97436523 -0.08764648 C113.58136932 -0.0413336 113.58136932 -0.0413336 115.7701664 1.54689789 C117.40336358 3.7769573 117.4337048 5.03218879 117.43760681 7.78218079 C117.44606628 8.69911209 117.45452576 9.6160434 117.46324158 10.5607605 C117.45716888 11.56449203 117.45109619 12.56822357 117.44483948 13.60237122 C117.45009644 14.66112961 117.45535339 15.719888 117.46076965 16.81072998 C117.47399947 20.31890002 117.46522076 23.82661824 117.45509338 27.33479309 C117.45711325 29.76712634 117.46002396 32.19945899 117.46379089 34.63179016 C117.4682183 39.73288226 117.46176963 44.83381692 117.44776917 49.93489075 C117.43067726 56.48241457 117.44051618 63.0295695 117.45848656 69.57707977 C117.46931303 74.60071099 117.46588324 79.62425436 117.45810318 84.64788818 C117.45609803 87.06249027 117.45857141 89.47710026 117.46554184 91.89169312 C117.47313744 95.26291617 117.46157809 98.63353692 117.44483948 102.00471497 C117.45091217 103.0084465 117.45698486 104.01217804 117.46324158 105.04632568 C117.4547821 105.96325699 117.44632263 106.88018829 117.43760681 107.8249054 C117.43647573 108.62204704 117.43534466 109.41918869 117.43417931 110.24048615 C116.95800852 112.84262254 116.15321362 113.72954023 114.05665588 115.30354309 C111.17750549 115.67585754 111.17750549 115.67585754 107.70899963 115.66682434 C106.46440979 115.66617981 105.21981995 115.66553528 103.93751526 115.66487122 C102.63620667 115.64875793 101.33489807 115.63264465 99.99415588 115.61604309 C98.6889801 115.61926575 97.38380432 115.6224884 96.03907776 115.62580872 C86.32351915 115.57040636 86.32351915 115.57040636 84.05665588 113.30354309 C83.82287598 111.17156982 83.82287598 111.17156982 83.84547424 108.5025177 C83.848853 107.50485886 83.85223175 106.50720001 83.85571289 105.47930908 C83.86917252 104.39907974 83.88263214 103.3188504 83.89649963 102.20588684 C83.9017012 101.10128616 83.90690277 99.99668549 83.91226196 98.85861206 C83.93012604 95.31929081 83.96131215 91.78025464 83.99415588 88.24104309 C84.02171197 84.6982887 84.04641839 81.15557374 84.06533813 77.61276245 C84.07765878 75.40474801 84.09532278 73.19675613 84.11865234 70.98883057 C84.12518326 69.99432388 84.13171417 68.9998172 84.13844299 67.97517395 C84.15082253 66.65518654 84.15082253 66.65518654 84.16345215 65.30853271 C84.28074417 63.30479974 84.28074417 63.30479974 83.05665588 62.30354309 C82.96746887 63.42011292 82.87828186 64.53668274 82.78639221 65.68708801 C82.1339204 70.85153944 80.33771867 75.37066306 78.38087463 80.16682434 C78.01444351 81.08062363 77.64801239 81.99442291 77.27047729 82.93591309 C76.49770825 84.85475017 75.72005041 86.77162492 74.9377594 88.68659973 C73.74317511 91.6184502 72.57199746 94.55893134 71.40235901 97.50080872 C70.64659005 99.36921113 69.88947495 101.23706971 69.13087463 103.10432434 C68.78280258 103.98244278 68.43473053 104.86056122 68.07611084 105.76528931 C67.73928787 106.58011276 67.4024649 107.39493622 67.05543518 108.23445129 C66.6202784 109.30745232 66.6202784 109.30745232 66.17633057 110.40213013 C64.79222778 112.75259052 63.37551191 113.88603862 61.05665588 115.30354309 C57.74415588 115.73713684 57.74415588 115.73713684 54.05665588 115.74104309 C52.83978088 115.76037903 51.62290588 115.77971497 50.36915588 115.79963684 C46.30847781 115.19149284 45.61329784 114.45653874 43.05665588 111.30354309 C41.66817972 108.62138605 40.57992359 105.84472693 39.49024963 103.03010559 C39.17008377 102.22874176 38.84991791 101.42737793 38.52005005 100.60173035 C37.50166054 98.04775005 36.49738099 95.48851343 35.49415588 92.92854309 C34.4847127 90.37684816 33.4723437 87.82635081 32.45755005 85.27677917 C31.82830416 83.69330656 31.20257263 82.10843135 30.58093262 80.5219574 C28.92823731 76.33572432 27.13978595 72.30046236 25.05665588 68.30354309 C25.07236633 70.02069519 25.07236633 70.02069519 25.08839417 71.77253723 C25.12474571 76.04219911 25.14761131 80.31184745 25.16651917 84.58161926 C25.17654231 86.42539271 25.19016441 88.2691504 25.20753479 90.11286926 C25.23194583 92.77151899 25.24317605 95.42995752 25.25196838 98.08869934 C25.26229095 98.90564774 25.27261353 99.72259613 25.2832489 100.56430054 C25.28421003 105.52883545 24.70761902 109.60892848 23.05665588 114.30354309 C20.30114077 117.0590582 11.83691018 115.48922512 8.11915588 115.49104309 C6.80495667 115.50328918 5.49075745 115.51553528 4.13673401 115.52815247 C2.88440979 115.53008606 1.63208557 115.53201965 0.34181213 115.53401184 C-1.39250061 115.54017517 -1.39250061 115.54017517 -3.16184998 115.54646301 C-5.94334412 115.30354309 -5.94334412 115.30354309 -7.94334412 113.30354309 C-8.1950264 111.32950592 -8.1950264 111.32950592 -8.1973114 108.86250305 C-8.20295105 107.92867294 -8.2085907 106.99484283 -8.21440125 106.03271484 C-8.20832855 104.49131584 -8.20832855 104.49131584 -8.20213318 102.91877747 C-8.20563782 101.83905167 -8.20914246 100.75932587 -8.2127533 99.6468811 C-8.2215845 96.06362046 -8.21571649 92.48055588 -8.20896912 88.89729309 C-8.21031536 86.41629498 -8.21225556 83.93529713 -8.21476746 81.45429993 C-8.21809941 75.5812128 -8.21108092 69.70819731 -8.20046592 63.83512068 C-8.19295638 59.14634314 -8.19561181 54.45764954 -8.2040863 49.76887512 C-8.21565217 43.31509966 -8.21750981 36.86140556 -8.21097565 30.40762329 C-8.20963772 27.94195538 -8.21129185 25.47628402 -8.21593475 23.01062012 C-8.22099145 19.56975538 -8.21330168 16.12915377 -8.20213318 12.68830872 C-8.20618164 11.66070938 -8.2102301 10.63311005 -8.21440125 9.57437134 C-8.2087616 8.64054123 -8.20312195 7.70671112 -8.1973114 6.74458313 C-8.19655735 5.93047218 -8.1958033 5.11636124 -8.1950264 4.27758026 C-7.58199743 -0.53063255 -4.00499034 0.05083613 0 0 Z M0.05665588 8.30354309 C0.05665588 40.97354309 0.05665588 73.64354309 0.05665588 107.30354309 C5.33665588 107.30354309 10.61665588 107.30354309 16.05665588 107.30354309 C16.38665588 85.85354309 16.71665588 64.40354309 17.05665588 42.30354309 C22.05665588 41.30354309 22.05665588 41.30354309 24.05665588 42.30354309 C25.17043749 44.70459371 26.17810739 47.08608945 27.14649963 49.54573059 C27.44721375 50.29342209 27.74792786 51.04111359 28.05775452 51.8114624 C29.04285272 54.26468478 30.01845533 56.72156978 30.99415588 59.17854309 C31.66734824 60.85941317 32.34126131 62.53999478 33.0158844 64.22029114 C34.37853211 67.61561979 35.73816369 71.01213215 37.09571838 74.40950012 C39.8624161 81.3250583 42.6771085 88.22088057 45.49415588 95.11604309 C46.38879113 97.3100111 47.28333381 99.50401687 48.17774963 101.69807434 C48.8040003 103.23325156 49.43028003 104.76841694 50.05665588 106.30354309 C52.69665588 106.30354309 55.33665588 106.30354309 58.05665588 106.30354309 C65.30943521 89.3910988 72.30949904 72.38636327 79.19166565 55.32038879 C79.50756149 54.53759048 79.82345734 53.75479218 80.14892578 52.94827271 C80.7459367 51.46821776 81.34213669 49.98783536 81.93740845 48.50708008 C83.94612913 43.5245966 83.94612913 43.5245966 85.05665588 41.30354309 C89.93165588 42.17854309 89.93165588 42.17854309 91.05665588 43.30354309 C91.18034913 45.29705739 91.23461978 47.2949078 91.26197815 49.29206848 C91.29189598 51.21394737 91.29189598 51.21394737 91.32241821 53.1746521 C91.33940385 54.58349993 91.35628262 55.99234904 91.37306213 57.40119934 C91.39362504 58.83467214 91.41462133 60.26813878 91.43603516 61.70159912 C91.49132448 65.48107429 91.54070334 69.26060479 91.58888245 73.04017639 C91.63904754 76.89429164 91.6947596 80.74832618 91.75001526 84.60237122 C91.8576807 92.16936218 91.9585945 99.73642046 92.05665588 107.30354309 C97.33665588 107.30354309 102.61665588 107.30354309 108.05665588 107.30354309 C108.05665588 74.63354309 108.05665588 41.96354309 108.05665588 8.30354309 C99.14665588 8.30354309 90.23665588 8.30354309 81.05665588 8.30354309 C77.88361429 15.2842346 74.87484213 22.12525963 72.20899963 29.28401184 C71.51434594 31.12581164 70.81968424 32.96760843 70.12501526 34.80940247 C69.05540843 37.65914592 67.98726796 40.50943436 66.91969299 43.35993958 C65.87384142 46.14847868 64.82283859 48.93503789 63.77149963 51.72151184 C63.30102455 52.98586311 63.30102455 52.98586311 62.82104492 54.27575684 C60.86029347 59.46820201 58.61692547 64.37782626 56.05665588 69.30354309 C54.17866516 69.00996399 54.17866516 69.00996399 52.05665588 68.30354309 C48.31508089 61.97337469 45.8987841 55.00494689 43.29103088 48.14729309 C42.63363922 46.43298096 42.63363922 46.43298096 41.96296692 44.68403625 C40.57372482 41.05864834 39.19011142 37.43114258 37.80665588 33.80354309 C36.86171519 31.33465075 35.91640657 28.8658992 34.97071838 26.39729309 C32.66107785 20.3679157 30.35907178 14.33570282 28.05665588 8.30354309 C18.81665588 8.30354309 9.57665588 8.30354309 0.05665588 8.30354309 Z " fill="#000000" transform="translate(238.94334411621094,178.6964569091797)"/>
<path d="M0 0 C1.26328125 -0.07025391 2.5265625 -0.14050781 3.828125 -0.21289062 C12.90292818 -0.35110979 12.90292818 -0.35110979 16.46386719 2.72485352 C18.30982668 5.33174484 19.7823221 7.97681632 21.25 10.8125 C22.35466835 12.55266186 23.47454215 14.28326396 24.609375 16.00390625 C25.74162517 17.79298025 26.87178244 19.58338024 28 21.375 C29.22091782 23.30235981 30.44227752 25.22943978 31.6640625 27.15625 C32.26508789 28.105 32.86611328 29.05375 33.48535156 30.03125 C36.10158171 34.15467195 38.73191557 38.26874702 41.375 42.375 C42.03000488 43.39992554 42.03000488 43.39992554 42.69824219 44.44555664 C43.10977539 45.08356201 43.52130859 45.72156738 43.9453125 46.37890625 C44.29609863 46.92490479 44.64688477 47.47090332 45.00830078 48.03344727 C46.64775579 50.38238723 48.44478176 52.58957868 50.25 54.8125 C50.24000725 53.88621796 50.24000725 53.88621796 50.22981262 52.94122314 C50.16347269 46.51750898 50.11820492 40.09389205 50.08520508 33.66992188 C50.07011318 31.27209521 50.0496375 28.87429617 50.02368164 26.4765625 C49.98731689 23.03118067 49.97027752 19.58616363 49.95703125 16.140625 C49.94154739 15.06758118 49.92606354 13.99453735 49.91011047 12.88897705 C49.90988388 11.88824158 49.90965729 10.8875061 49.90942383 9.85644531 C49.89943108 8.53740204 49.89943108 8.53740204 49.88923645 7.19171143 C50.33039932 4.28227186 51.21580894 2.91593088 53.25 0.8125 C56.12915039 0.32666016 56.12915039 0.32666016 59.59765625 0.3515625 C60.84224609 0.35542969 62.08683594 0.35929688 63.36914062 0.36328125 C64.67044922 0.38777344 65.97175781 0.41226563 67.3125 0.4375 C69.27026367 0.43943359 69.27026367 0.43943359 71.26757812 0.44140625 C80.96943681 0.53193681 80.96943681 0.53193681 83.25 2.8125 C83.50168228 4.78653717 83.50168228 4.78653717 83.50396729 7.25354004 C83.50960693 8.18737015 83.51524658 9.12120026 83.52105713 10.08332825 C83.51700867 11.11092758 83.51296021 12.13852692 83.50878906 13.19726562 C83.5122937 14.27699142 83.51579834 15.35671722 83.51940918 16.46916199 C83.52824038 20.05242263 83.52237238 23.63548721 83.515625 27.21875 C83.51697125 29.69974811 83.51891144 32.18074596 83.52142334 34.66174316 C83.52475529 40.53483029 83.5177368 46.40784578 83.5071218 52.28092241 C83.49961226 56.96969995 83.5022677 61.65839355 83.51074219 66.34716797 C83.52230805 72.80094343 83.5241657 79.25463753 83.51763153 85.7084198 C83.5162936 88.17408772 83.51794773 90.63975907 83.52259064 93.10542297 C83.52764733 96.54628771 83.51995756 99.98688932 83.50878906 103.42773438 C83.51283752 104.45533371 83.51688599 105.48293304 83.52105713 106.54167175 C83.51541748 107.47550186 83.50977783 108.40933197 83.50396729 109.37145996 C83.50321323 110.18557091 83.50245918 110.99968185 83.50168228 111.83846283 C83.25 113.8125 83.25 113.8125 81.25 115.8125 C76.68841333 116.38331655 72.0930673 116.32228516 67.5 116.375 C66.22382813 116.42462891 64.94765625 116.47425781 63.6328125 116.52539062 C54.52189887 116.62524928 54.52189887 116.62524928 51.19946289 114.50219727 C49.59399213 112.6971038 48.43193457 110.91720824 47.25 108.8125 C46.83379395 108.17207764 46.41758789 107.53165527 45.98876953 106.87182617 C44.66609549 104.81886774 43.42371804 102.7310361 42.1875 100.625 C37.60033606 92.96289755 32.82320062 85.44736233 27.92944336 77.9777832 C25.10932295 73.67310631 22.31380713 69.35497508 19.55371094 65.01147461 C18.93236267 64.03399765 18.3110144 63.05652069 17.6708374 62.04942322 C17.20196106 61.31123856 16.73308472 60.57305389 16.25 59.8125 C16.25444122 60.48457489 16.25888245 61.15664978 16.26345825 61.84909058 C16.30759634 68.82401408 16.33782667 75.79889813 16.35986328 82.77392578 C16.36994064 85.37941091 16.3836027 87.98488469 16.40087891 90.59033203 C16.42505102 94.32847899 16.4364656 98.06647685 16.4453125 101.8046875 C16.45563507 102.97554901 16.46595764 104.14641052 16.47659302 105.35275269 C16.47681961 106.974207 16.47681961 106.974207 16.47705078 108.62841797 C16.481492 109.58328094 16.48593323 110.53814392 16.49050903 111.52194214 C16.25 113.8125 16.25 113.8125 14.25 115.8125 C9.62144189 116.27482157 4.96145203 116.13647889 0.3125 116.125 C-1.63946289 116.14916992 -1.63946289 116.14916992 -3.63085938 116.17382812 C-5.49774414 116.17479492 -5.49774414 116.17479492 -7.40234375 116.17578125 C-8.54695068 116.17876221 -9.69155762 116.18174316 -10.87084961 116.18481445 C-13.75 115.8125 -13.75 115.8125 -15.40613747 114.5691452 C-17.11203117 112.33926683 -17.12699245 111.12365592 -17.13095093 108.3338623 C-17.1394104 107.416931 -17.14786987 106.49999969 -17.15658569 105.55528259 C-17.150513 104.55155106 -17.14444031 103.54781952 -17.13818359 102.51367188 C-17.14344055 101.45491348 -17.14869751 100.39615509 -17.15411377 99.30531311 C-17.16734359 95.79714307 -17.15856487 92.28942485 -17.1484375 88.78125 C-17.15045737 86.34891675 -17.15336808 83.9165841 -17.15713501 81.48425293 C-17.16156242 76.38316083 -17.15511375 71.28222617 -17.14111328 66.18115234 C-17.12402137 59.63362852 -17.1338603 53.08647359 -17.15183067 46.53896332 C-17.16265714 41.5153321 -17.15922736 36.49178873 -17.1514473 31.46815491 C-17.14944215 29.05355282 -17.15191553 26.63894283 -17.15888596 24.22434998 C-17.16648156 20.85312692 -17.1549222 17.48250617 -17.13818359 14.11132812 C-17.14425629 13.10759659 -17.15032898 12.10386505 -17.15658569 11.06971741 C-17.14812622 10.1527861 -17.13966675 9.2358548 -17.13095093 8.2911377 C-17.12981985 7.49399605 -17.12868877 6.6968544 -17.12752342 5.87555695 C-15.7183511 -1.82516458 -5.929449 0.09264764 0 0 Z M-7.75 8.8125 C-7.75 41.4825 -7.75 74.1525 -7.75 107.8125 C-2.47 107.8125 2.81 107.8125 8.25 107.8125 C8.58 86.6925 8.91 65.5725 9.25 43.8125 C11.725 43.3175 11.725 43.3175 14.25 42.8125 C19.73029794 50.14525516 24.77395922 57.63803594 29.5625 65.4375 C30.87129815 67.55146124 32.18120094 69.66473897 33.4921875 71.77734375 C34.12866211 72.80327637 34.76513672 73.82920898 35.42089844 74.88623047 C38.39658552 79.64685318 41.42347584 84.37615175 44.5559082 89.03540039 C47.02144831 92.73302402 49.07234293 96.33122366 50.72290039 100.46435547 C52.07648303 103.13259973 52.07648303 103.13259973 56.25 107.8125 C62.52 107.8125 68.79 107.8125 75.25 107.8125 C75.25 75.1425 75.25 42.4725 75.25 8.8125 C69.97 8.8125 64.69 8.8125 59.25 8.8125 C59.21241577 11.71276978 59.21241577 11.71276978 59.17407227 14.67163086 C59.09031972 21.04594042 59.00204808 27.42017473 58.91066074 33.79437923 C58.85539645 37.6606601 58.801971 41.52694848 58.75268555 45.39331055 C58.7050935 49.12160087 58.65275285 52.84979652 58.59705925 56.57797432 C58.57661222 58.00336933 58.55790309 59.42879032 58.54092598 60.85423088 C58.51693404 62.84420541 58.48629864 64.83409655 58.45532227 66.82397461 C58.43977798 67.95870712 58.4242337 69.09343964 58.40821838 70.26255798 C58.25 72.8125 58.25 72.8125 57.25 73.8125 C54.87890625 74.11328125 54.87890625 74.11328125 52.25 73.8125 C50.65234375 72.29296875 50.65234375 72.29296875 49.1875 70 C48.589375 69.08089844 47.99125 68.16179687 47.375 67.21484375 C46.66597719 66.08116008 45.95770769 64.9470051 45.25 63.8125 C44.37596179 62.43818993 43.50089165 61.06453581 42.625 59.69140625 C40.5960205 56.50015564 38.57948056 53.30141452 36.5703125 50.09765625 C34.28376727 46.45300441 31.98674206 42.81529983 29.6796875 39.18359375 C29.08325439 38.24370605 28.48682129 37.30381836 27.87231445 36.33544922 C26.67072292 34.45290718 25.46096915 32.57554886 24.24291992 30.70361328 C21.23361878 26.06121326 18.43252766 21.490905 16.15405273 16.44311523 C14.55010711 13.65563622 12.324904 11.26962316 10.25 8.8125 C4.31 8.8125 -1.63 8.8125 -7.75 8.8125 Z " fill="#000000" transform="translate(387.75,178.1875)"/>
<path d="M0 0 C1.27141846 -0.00945648 2.54283691 -0.01891296 3.8527832 -0.02865601 C5.24170238 -0.02328631 6.63061873 -0.01713337 8.01953125 -0.01025391 C9.44295399 -0.01227479 10.86637572 -0.01518636 12.28979492 -0.01895142 C15.27239849 -0.02337412 18.25473246 -0.01694576 21.23730469 -0.00292969 C25.06088216 0.01416256 28.88382791 0.00432104 32.7073822 -0.01364708 C35.64649212 -0.02448659 38.58545222 -0.0210379 41.52456665 -0.0132637 C42.93437779 -0.01126214 44.34420253 -0.01371947 45.7539978 -0.02070236 C47.72401673 -0.02831864 49.69408334 -0.0146522 51.6640625 0 C52.78530518 0.00238678 53.90654785 0.00477356 55.06176758 0.00723267 C57.83203125 0.38818359 57.83203125 0.38818359 59.69326782 1.75643921 C61.34492552 4.12311442 61.22048421 5.96154741 61.23046875 8.82568359 C61.23433594 9.88529297 61.23820312 10.94490234 61.2421875 12.03662109 C61.23058594 13.14263672 61.21898438 14.24865234 61.20703125 15.38818359 C61.21863281 16.49419922 61.23023437 17.60021484 61.2421875 18.73974609 C61.23832031 19.79935547 61.23445313 20.85896484 61.23046875 21.95068359 C61.22708496 22.92134766 61.22370117 23.89201172 61.22021484 24.89208984 C60.83203125 27.38818359 60.83203125 27.38818359 59.7902832 29.2097168 C56.72031785 31.05720748 53.57524912 30.75501151 50.1015625 30.68115234 C49.35114182 30.6769075 48.60072113 30.67266266 47.82756042 30.66828918 C45.43285099 30.6515081 43.03898591 30.6138585 40.64453125 30.57568359 C39.02019445 30.56063595 37.39584445 30.54694768 35.77148438 30.53466797 C31.79134177 30.50160664 27.81182962 30.44982953 23.83203125 30.38818359 C23.83203125 34.67818359 23.83203125 38.96818359 23.83203125 43.38818359 C24.82122559 43.37770996 25.81041992 43.36723633 26.82958984 43.35644531 C30.49345289 43.32029341 34.15730011 43.29730078 37.82128906 43.27832031 C39.40823008 43.26825171 40.9951525 43.25459592 42.58203125 43.23730469 C44.86072372 43.21309358 47.13917131 43.20170937 49.41796875 43.19287109 C50.1294809 43.18254852 50.84099304 43.17222595 51.57406616 43.16159058 C53.3283479 43.16118938 55.08199834 43.26616151 56.83203125 43.38818359 C59.47902741 46.03517976 59.08952892 47.29212769 59.09765625 50.98193359 C59.10152344 52.650625 59.10152344 52.650625 59.10546875 54.35302734 C59.09773438 55.51962891 59.09 56.68623047 59.08203125 57.88818359 C59.09363281 59.63808594 59.09363281 59.63808594 59.10546875 61.42333984 C59.10289063 62.53580078 59.1003125 63.64826172 59.09765625 64.79443359 C59.09540039 65.81859375 59.09314453 66.84275391 59.09082031 67.89794922 C58.83203125 70.38818359 58.83203125 70.38818359 56.83203125 72.38818359 C54.32282279 72.56313965 51.92578184 72.61987928 49.41796875 72.58349609 C48.68832916 72.5806662 47.95868958 72.5778363 47.2069397 72.57492065 C44.87347097 72.56371361 42.54038422 72.5386087 40.20703125 72.51318359 C38.62630762 72.50315444 37.04557798 72.49402848 35.46484375 72.48583984 C31.58709211 72.46377265 27.70962647 72.42923974 23.83203125 72.38818359 C23.83203125 76.67818359 23.83203125 80.96818359 23.83203125 85.38818359 C24.81075195 85.37247314 25.78947266 85.3567627 26.79785156 85.34057617 C30.43562563 85.28619789 34.07336389 85.25180511 37.71142578 85.22338867 C39.28472947 85.20831995 40.85799127 85.18786114 42.43115234 85.16186523 C44.69509221 85.12539621 46.95847582 85.10843851 49.22265625 85.09521484 C49.92384583 85.07973099 50.6250354 85.06424713 51.34747314 85.04829407 C54.33296549 85.04726967 56.56701926 85.26226191 59.27880859 86.55078125 C61.43799156 89.10501121 61.31972664 90.76187326 61.29296875 94.07958984 C61.28910156 95.18882812 61.28523438 96.29806641 61.28125 97.44091797 C61.24451172 99.17825195 61.24451172 99.17825195 61.20703125 100.95068359 C61.20574219 102.11277344 61.20445313 103.27486328 61.203125 104.47216797 C61.11270255 113.1075123 61.11270255 113.1075123 58.83203125 115.38818359 C56.14405823 115.64888 56.14405823 115.64888 52.68579102 115.6628418 C51.39427628 115.67237381 50.10276154 115.68190582 48.77210999 115.69172668 C47.35588555 115.69146526 45.9396611 115.69052825 44.5234375 115.68896484 C43.07616553 115.69285041 41.6288947 115.69718479 40.18162537 115.70195007 C37.14602973 115.70941832 34.11055037 115.70911679 31.07495117 115.70385742 C27.18299718 115.6980634 23.29151918 115.7149887 19.3996439 115.7382021 C16.4099397 115.75292794 13.42035042 115.75381271 10.43061638 115.75069237 C8.99567663 115.75120621 7.56073054 115.75645584 6.12582588 115.76650429 C4.11980944 115.778827 2.11369709 115.77014929 0.10766602 115.76049805 C-1.03435776 115.76112747 -2.17638153 115.7617569 -3.35301208 115.7624054 C-6.57581325 115.33396453 -7.23359256 114.90902785 -9.16796875 112.38818359 C-9.54549217 110.32512665 -9.54549217 110.32512665 -9.54891968 107.9095459 C-9.55737915 106.99261459 -9.56583862 106.07568329 -9.57455444 105.13096619 C-9.56848175 104.12723465 -9.56240906 103.12350311 -9.55615234 102.08935547 C-9.5614093 101.03059708 -9.56666626 99.97183868 -9.57208252 98.8809967 C-9.58531234 95.37282666 -9.57653362 91.86510845 -9.56640625 88.35693359 C-9.56842612 85.92460035 -9.57133683 83.49226769 -9.57510376 81.05993652 C-9.57953117 75.95884442 -9.5730825 70.85790976 -9.55908203 65.75683594 C-9.54199012 59.20931212 -9.55182905 52.66215719 -9.56979942 46.11464691 C-9.58062589 41.09101569 -9.57719611 36.06747232 -9.56941605 31.0438385 C-9.5674109 28.62923642 -9.56988428 26.21462643 -9.57685471 23.80003357 C-9.58445031 20.42881052 -9.57289095 17.05818977 -9.55615234 13.68701172 C-9.56222504 12.68328018 -9.56829773 11.67954865 -9.57455444 10.645401 C-9.56609497 9.7284697 -9.5576355 8.81153839 -9.54891968 7.86682129 C-9.5477886 7.06967964 -9.54665752 6.27253799 -9.54549217 5.45124054 C-8.56284071 0.08133288 -4.75425555 0.01012034 0 0 Z M-0.16796875 8.38818359 C-0.16796875 41.05818359 -0.16796875 73.72818359 -0.16796875 107.38818359 C16.99203125 107.38818359 34.15203125 107.38818359 51.83203125 107.38818359 C51.83203125 103.09818359 51.83203125 98.80818359 51.83203125 94.38818359 C50.80730713 94.36312744 49.78258301 94.33807129 48.72680664 94.31225586 C44.93793449 94.21833876 41.14925244 94.11808042 37.3605957 94.01586914 C35.71838822 93.97246063 34.07613386 93.93079002 32.43383789 93.89086914 C30.0781438 93.83330919 27.72268697 93.76957468 25.3671875 93.70458984 C24.62864029 93.68787735 23.89009308 93.67116486 23.12916565 93.65394592 C17.94590296 93.5020553 17.94590296 93.5020553 16.83203125 92.38818359 C16.73231339 90.47360078 16.70122536 88.55536042 16.69921875 86.63818359 C16.69792969 85.47287109 16.69664063 84.30755859 16.6953125 83.10693359 C16.69917969 81.87974609 16.70304687 80.65255859 16.70703125 79.38818359 C16.70123047 77.54740234 16.70123047 77.54740234 16.6953125 75.66943359 C16.69660156 74.50412109 16.69789062 73.33880859 16.69921875 72.13818359 C16.70034668 71.06052734 16.70147461 69.98287109 16.70263672 68.87255859 C16.83203125 66.38818359 16.83203125 66.38818359 17.83203125 65.38818359 C20.27812123 65.22837922 22.69934183 65.12888913 25.1484375 65.07177734 C25.87949203 65.05099625 26.61054657 65.03021515 27.36375427 65.00880432 C29.70724781 64.94323335 32.05085664 64.88438928 34.39453125 64.82568359 C35.9798298 64.78250551 37.56511654 64.73889146 39.15039062 64.69482422 C43.04415162 64.5875444 46.93802897 64.4862987 50.83203125 64.38818359 C50.83203125 60.09818359 50.83203125 55.80818359 50.83203125 51.38818359 C49.8376001 51.36312744 48.84316895 51.33807129 47.81860352 51.31225586 C44.14154378 51.21833478 40.46467975 51.11807741 36.7878418 51.01586914 C35.19413825 50.97246214 33.60038645 50.93079141 32.0065918 50.89086914 C29.72039217 50.83330552 27.43443676 50.7695721 25.1484375 50.70458984 C24.43176407 50.68787735 23.71509064 50.67116486 22.97669983 50.65394592 C17.94590296 50.5020553 17.94590296 50.5020553 16.83203125 49.38818359 C16.57901886 45.24856077 16.64680576 41.09712363 16.64453125 36.95068359 C16.63228516 35.77957031 16.62003906 34.60845703 16.60742188 33.40185547 C16.60548828 32.28488281 16.60355469 31.16791016 16.6015625 30.01708984 C16.59745361 28.98656494 16.59334473 27.95604004 16.58911133 26.89428711 C16.83203125 24.38818359 16.83203125 24.38818359 18.83203125 22.38818359 C21.33578593 22.14302663 23.73752604 22.01484702 26.24609375 21.97412109 C27.34055313 21.94507187 27.34055313 21.94507187 28.4571228 21.91543579 C30.79030627 21.85559937 33.12353898 21.80923936 35.45703125 21.76318359 C37.03778207 21.72500746 38.61851201 21.68595594 40.19921875 21.64599609 C44.07665355 21.54989481 47.95418574 21.46587947 51.83203125 21.38818359 C51.83203125 17.09818359 51.83203125 12.80818359 51.83203125 8.38818359 C34.67203125 8.38818359 17.51203125 8.38818359 -0.16796875 8.38818359 Z " fill="#000000" transform="translate(61.16796875,178.61181640625)"/>
<path d="M0 0 C0.72680466 0.00247742 1.45360931 0.00495483 2.20243835 0.00750732 C2.9684436 0.00239639 3.73444885 -0.00271454 4.52366638 -0.00798035 C7.06323496 -0.02191388 9.60253329 -0.02091676 12.14213562 -0.01861572 C13.90329083 -0.02250067 15.6644451 -0.02683492 17.42559814 -0.03160095 C21.12028539 -0.03907131 24.81487709 -0.03876606 28.50956726 -0.0335083 C33.24896638 -0.02771342 37.98797474 -0.04464104 42.72730923 -0.06785297 C46.36553237 -0.08257099 50.00366101 -0.08346465 53.64190865 -0.08034325 C55.38944841 -0.08085746 57.13699333 -0.08611394 58.88450432 -0.09615517 C61.3266795 -0.1084647 63.76808833 -0.10176134 66.21025085 -0.09014893 C66.93503128 -0.09779266 67.65981171 -0.1054364 68.40655518 -0.11331177 C71.32543887 -0.08256786 73.29202746 -0.05582231 75.71833801 1.65615845 C78.11623063 5.35994498 77.23718448 10.46233211 77.20854187 14.71966553 C77.22852234 15.76960693 77.24850281 16.81954834 77.26908875 17.90130615 C77.26812195 19.41821045 77.26812195 19.41821045 77.26713562 20.96575928 C77.26898865 21.88929199 77.27084167 22.81282471 77.27275085 23.76434326 C76.77104187 26.28216553 76.77104187 26.28216553 75.44316101 28.59881592 C71.08122786 31.34669432 66.55315602 30.69819975 61.52104187 30.53216553 C60.48979187 30.51411865 59.45854187 30.49607178 58.39604187 30.47747803 C55.85343123 30.43039265 53.31271025 30.36464603 50.77104187 30.28216553 C50.77548309 31.31755463 50.77992432 32.35294373 50.78450012 33.41970825 C50.824984 43.16115943 50.85499629 52.90259362 50.87466621 62.64410973 C50.88511854 67.652729 50.89930408 72.66128055 50.92192078 77.66986084 C50.94359762 82.50034885 50.95559957 87.33077159 50.96079636 92.16130447 C50.96450141 94.00736138 50.97173612 95.85341458 50.98250198 97.69944382 C50.99694844 100.27836677 50.9990227 102.85701744 50.99809265 105.43597412 C51.0052832 106.20489487 51.01247375 106.97381561 51.0198822 107.76603699 C50.99914619 113.0540612 50.99914619 113.0540612 48.77104187 115.28216553 C44.14248376 115.7444871 39.4824939 115.60614442 34.83354187 115.59466553 C32.88157898 115.61883545 32.88157898 115.61883545 30.8901825 115.64349365 C29.02329773 115.64446045 29.02329773 115.64446045 27.11869812 115.64544678 C25.97409119 115.64842773 24.82948425 115.65140869 23.65019226 115.65447998 C20.77104187 115.28216553 20.77104187 115.28216553 19.11238098 114.25064087 C17.02415697 111.18607842 17.37940639 107.99297364 17.4304657 104.41424561 C17.42980858 103.21389931 17.42980858 103.21389931 17.42913818 101.98930359 C17.4312289 99.34318681 17.45457293 96.69770293 17.47807312 94.05169678 C17.48366808 92.21752773 17.48793865 90.38335421 17.49093628 88.54917908 C17.50239296 83.7206892 17.53186722 78.89246987 17.56504822 74.06408691 C17.59573136 69.13746806 17.60943786 64.21080551 17.6245575 59.28411865 C17.65673613 49.61668205 17.70794244 39.94944628 17.77104187 30.28216553 C17.12030701 30.29787598 16.46957214 30.31358643 15.79911804 30.32977295 C12.85234763 30.39211202 9.90571589 30.43115236 6.95854187 30.46966553 C5.93438171 30.49480225 4.91022156 30.51993896 3.85502625 30.5458374 C2.38066101 30.56033936 2.38066101 30.56033936 0.87651062 30.57513428 C-0.02945862 30.59084473 -0.93542786 30.60655518 -1.86885071 30.6227417 C-4.22895813 30.28216553 -4.22895813 30.28216553 -6.02478027 28.92658997 C-7.80280211 26.49852459 -7.60095695 24.5705196 -7.59223938 21.59075928 C-7.59127258 19.92690186 -7.59127258 19.92690186 -7.59028625 18.22943115 C-7.57417297 17.0712085 -7.55805969 15.91298584 -7.54145813 14.71966553 C-7.54468079 13.55757568 -7.54790344 12.39548584 -7.55122375 11.19818115 C-7.48007721 0.07991608 -7.48007721 0.07991608 0 0 Z M0.77104187 8.28216553 C0.77104187 12.57216553 0.77104187 16.86216553 0.77104187 21.28216553 C3.22670593 21.35564209 3.22670593 21.35564209 5.73197937 21.43060303 C7.87001787 21.50562192 10.00803785 21.58117012 12.14604187 21.65716553 C13.76639343 21.70357178 13.76639343 21.70357178 15.41947937 21.75091553 C16.96635437 21.80892334 16.96635437 21.80892334 18.54447937 21.86810303 C19.97413025 21.91523438 19.97413025 21.91523438 21.43266296 21.96331787 C23.77104187 22.28216553 23.77104187 22.28216553 25.77104187 24.28216553 C25.98848933 26.93044923 26.08244181 29.47733355 26.08988953 32.12835693 C26.09993515 32.93819534 26.10998077 33.74803375 26.12033081 34.58241272 C26.15128591 37.26617709 26.16823197 39.94984117 26.18510437 42.63372803 C26.20380612 44.49175894 26.22337878 46.34978127 26.24378967 48.20779419 C26.29522183 53.10352531 26.33478808 57.99928401 26.37193298 62.8951416 C26.41190332 67.88880291 26.46302737 72.88234845 26.51322937 77.87591553 C26.61011989 87.67792581 26.69345204 97.47998344 26.77104187 107.28216553 C32.05104187 107.28216553 37.33104187 107.28216553 42.77104187 107.28216553 C42.79086121 104.77832275 42.81068054 102.27447998 42.83110046 99.69476318 C42.89790661 91.4364907 42.97554726 83.17834594 43.05856895 74.92022133 C43.10858673 69.91166598 43.15491612 64.9031323 43.19291687 59.89447021 C43.22970064 55.0638786 43.27604139 50.23346584 43.32910538 45.40302658 C43.34768618 43.55701194 43.36278041 41.71095891 43.37438583 39.86488724 C43.3911855 37.28585612 43.42020454 34.70723795 43.45219421 32.12835693 C43.4543544 31.35943619 43.45651459 30.59051544 43.45874023 29.79829407 C43.54293755 24.51026985 43.54293755 24.51026985 45.77104187 22.28216553 C48.0176239 21.96331787 48.0176239 21.96331787 50.77885437 21.86810303 C52.25805359 21.81009521 52.25805359 21.81009521 53.76713562 21.75091553 C55.31594421 21.70450928 55.31594421 21.70450928 56.89604187 21.65716553 C57.93631531 21.61849365 58.97658875 21.57982178 60.04838562 21.53997803 C62.62230589 21.44552224 65.19664992 21.36274781 67.77104187 21.28216553 C67.77104187 16.99216553 67.77104187 12.70216553 67.77104187 8.28216553 C45.66104187 8.28216553 23.55104187 8.28216553 0.77104187 8.28216553 Z " fill="#000000" transform="translate(141.2289581298828,178.71783447265625)"/>
</svg>
